HIERARCHY
ROOT hip
{
  OFFSET 0 0 0
  CHANNELS 6 Xposition Yposition Zposition Zrotation Yrotation Xrotation
  JOINT abdomen
  {
    OFFSET 0 20.6881 -0.73152
    CHANNELS 3 Zrotation Xrotation Yrotation
    JOINT chest
    {
      OFFSET 0 11.7043 -0.48768
      CHANNELS 3 Zrotation Xrotation Yrotation
      JOINT neck
      {
        OFFSET 0 22.1894 -2.19456
        CHANNELS 3 Zrotation Xrotation Yrotation
        JOINT head
        {
          OFFSET -0.24384 7.07133 1.2192
          CHANNELS 3 Zrotation Xrotation Yrotation
          JOINT leftEye
          {
            OFFSET 4.14528 8.04674 8.04672
            CHANNELS 3 Zrotation Xrotation Yrotation
            End Site
            {
              OFFSET 1 0 0
            }
          }
          JOINT rightEye
          {
            OFFSET -3.6576 8.04674 8.04672
            CHANNELS 3 Zrotation Xrotation Yrotation
            End Site
            {
              OFFSET 1 0 0
            }
          }
        }
      }
      JOINT rCollar
      {
        OFFSET -2.68224 19.2634 -4.8768
        CHANNELS 3 Zrotation Xrotation Yrotation
        JOINT rShldr
        {
          OFFSET -8.77824 -1.95073 1.46304
          CHANNELS 3 Zrotation Xrotation Yrotation
          JOINT rForeArm
          {
            OFFSET -28.1742 -1.7115 0.48768
            CHANNELS 3 Zrotation Xrotation Yrotation
            JOINT rHand
            {
              OFFSET -22.5879 0.773209 7.07136
              CHANNELS 3 Zrotation Xrotation Yrotation
              JOINT rThumb1
              {
                OFFSET -1.2192 -0.487915 3.41376
                CHANNELS 3 Zrotation Xrotation Yrotation
                JOINT rThumb2
                {
                  OFFSET -3.37035 -0.52449 3.41376
                  CHANNELS 3 Zrotation Xrotation Yrotation
                  End Site
                  {
                    OFFSET -1.78271 -1.18214 1.43049
                  }
                }
              }
              JOINT rIndex1
              {
                OFFSET -7.75947 0.938293 5.60832
                CHANNELS 3 Zrotation Xrotation Yrotation
                JOINT rIndex2
                {
                  OFFSET -2.54057 -0.884171 1.56538
                  CHANNELS 3 Zrotation Xrotation Yrotation
                  End Site
                  {
                    OFFSET -1.62519 -0.234802 1.16502
                  }
                }
              }
              JOINT rMid1
              {
                OFFSET -8.24714 1.18213 3.41376
                CHANNELS 3 Zrotation Xrotation Yrotation
                JOINT rMid2
                {
                  OFFSET -3.10165 -0.590103 1.0647
                  CHANNELS 3 Zrotation Xrotation Yrotation
                  End Site
                  {
                    OFFSET -2.48547 -0.328903 0.83742
                  }
                }
              }
              JOINT rRing1
              {
                OFFSET -8.82822 0.546677 1.51678
                CHANNELS 3 Zrotation Xrotation Yrotation
                JOINT rRing2
                {
                  OFFSET -2.60934 -0.819778 -0.0198488
                  CHANNELS 3 Zrotation Xrotation Yrotation
                  End Site
                  {
                    OFFSET -2.33842 -0.294052 0.168128
                  }
                }
              }
              JOINT rPinky1
              {
                OFFSET -8.27202 -0.0477905 -0.4584
                CHANNELS 3 Zrotation Xrotation Yrotation
                JOINT rPinky2
                {
                  OFFSET -1.82734 -0.647385 -0.700984
                  CHANNELS 3 Zrotation Xrotation Yrotation
                  End Site
                  {
                    OFFSET -1.69225 -0.51767 -0.607171
                  }
                }
              }
            }
          }
        }
      }
      JOINT lCollar
      {
        OFFSET 2.68224 19.2634 -4.8768
        CHANNELS 3 Zrotation Xrotation Yrotation
        JOINT lShldr
        {
          OFFSET 8.77824 -1.95073 1.46304
          CHANNELS 3 Zrotation Xrotation Yrotation
          JOINT lForeArm
          {
            OFFSET 28.1742 -1.7115 0.48768
            CHANNELS 3 Zrotation Xrotation Yrotation
            JOINT lHand
            {
              OFFSET 22.5879 0.773209 7.07136
              CHANNELS 3 Zrotation Xrotation Yrotation
              JOINT lThumb1
              {
                OFFSET 1.2192 -0.487915 3.41376
                CHANNELS 3 Zrotation Xrotation Yrotation
                JOINT lThumb2
                {
                  OFFSET 3.37035 -0.52449 3.41376
                  CHANNELS 3 Zrotation Xrotation Yrotation
                  End Site
                  {
                    OFFSET 1.78271 -1.18214 1.43049
                  }
                }
              }
              JOINT lIndex1
              {
                OFFSET 7.75947 0.938293 5.60832
                CHANNELS 3 Zrotation Xrotation Yrotation
                JOINT lIndex2
                {
                  OFFSET 2.54057 -0.884171 1.56538
                  CHANNELS 3 Zrotation Xrotation Yrotation
                  End Site
                  {
                    OFFSET 1.62519 -0.234802 1.16502
                  }
                }
              }
              JOINT lMid1
              {
                OFFSET 8.24714 1.18213 3.41376
                CHANNELS 3 Zrotation Xrotation Yrotation
                JOINT lMid2
                {
                  OFFSET 3.10165 -0.590103 1.0647
                  CHANNELS 3 Zrotation Xrotation Yrotation
                  End Site
                  {
                    OFFSET 2.48547 -0.328903 0.83742
                  }
                }
              }
              JOINT lRing1
              {
                OFFSET 8.82822 0.546677 1.51678
                CHANNELS 3 Zrotation Xrotation Yrotation
                JOINT lRing2
                {
                  OFFSET 2.60934 -0.819778 -0.0198488
                  CHANNELS 3 Zrotation Xrotation Yrotation
                  End Site
                  {
                    OFFSET 2.33842 -0.294052 0.168128
                  }
                }
              }
              JOINT lPinky1
              {
                OFFSET 8.27202 -0.0477905 -0.4584
                CHANNELS 3 Zrotation Xrotation Yrotation
                JOINT lPinky2
                {
                  OFFSET 1.82734 -0.647385 -0.700984
                  CHANNELS 3 Zrotation Xrotation Yrotation
                  End Site
                  {
                    OFFSET 1.69225 -0.51767 -0.607171
                  }
                }
              }
            }
          }
        }
      }
    }
  }
  JOINT rButtock
  {
    OFFSET -8.77824 4.35084 1.2192
    CHANNELS 3 Zrotation Xrotation Yrotation
    JOINT rThigh
    {
      OFFSET 0 -1.70687 -2.19456
      CHANNELS 3 Zrotation Xrotation Yrotation
      JOINT rShin
      {
        OFFSET 0 -36.8199 0.73152
        CHANNELS 3 Zrotation Xrotation Yrotation
        JOINT rFoot
        {
          OFFSET 0.73152 -45.1104 -5.12064
          CHANNELS 3 Zrotation Xrotation Yrotation
          End Site
          {
            OFFSET -1.1221 -3.69964 12.103
          }
        }
      }
    }
  }
  JOINT lButtock
  {
    OFFSET 8.77824 4.35084 1.2192
    CHANNELS 3 Zrotation Xrotation Yrotation
    JOINT lThigh
    {
      OFFSET 0 -1.70687 -2.19456
      CHANNELS 3 Zrotation Xrotation Yrotation
      JOINT lShin
      {
        OFFSET 0 -36.8199 0.73152
        CHANNELS 3 Zrotation Xrotation Yrotation
        JOINT lFoot
        {
          OFFSET -0.73152 -45.1104 -5.12064
          CHANNELS 3 Zrotation Xrotation Yrotation
          End Site
          {
            OFFSET 1.1221 -3.69964 12.103
          }
        }
      }
    }
  }
}
MOTION
Frames:	8
Frame Time:	0.00833333
4.10215 83.9958 -91.6447 0.0 0.0 0.0 -1.70022 -0.00276352 -0.0463328 -0.469052 0.00196667 -0.0812255 -2.29329e-15 7.95139e-16 4.72114e-16 -7.15625e-15 9.54166e-15 1.38683e-15 -0.0 0.0 0.0 -0.0 0.0 0.0 -1.0454e-15 -7.2603e-17 3.47873e-16 -2.30755e-14 -1.11195e-15 5.76476e-15 -4.51042e-13 7.77248e-14 9.54166e-14 -5.07166e-12 -4.01992e-13 9.25541e-13 -1.199e-11 -7.12051e-13 2.20412e-12 -2.07213e-11 -1.23087e-12 3.80633e-12 -1.19843e-11 -7.11252e-13 2.19458e-12 7.73091 5.47488 0.417314 -1.19916e-11 -7.12444e-13 2.2073e-12 2.90554 0.965183 0.102902 -1.19815e-11 -7.11351e-13 2.20094e-12 10.2786 0.731801 0.0259123 -1.19984e-11 -7.08866e-13 2.2073e-12 2.22167 -0.733487 -0.20892 -1.14131e-15 -7.22147e-17 1.49089e-16 -2.66445e-14 -1.62134e-15 3.77691e-15 -4.34742e-13 -1.85665e-13 9.85972e-14 -5.08082e-12 -1.54853e-13 9.22361e-13 -1.19694e-11 -7.42773e-13 2.2073e-12 -2.06621e-11 -1.28176e-12 3.80712e-12 -1.19744e-11 -7.4425e-13 2.22003e-12 -7.73091 5.47488 -0.417314 -1.19687e-11 -7.4266e-13 2.2073e-12 -2.90554 0.965183 -0.102902 -1.19779e-11 -7.42361e-13 2.2073e-12 -10.2786 0.731801 -0.0259123 -1.19696e-11 -7.4266e-13 2.19458e-12 -2.22167 -0.733487 0.20892 -2.03217e-16 0.0 -3.88251e-19 -0.815255 -1.92421 -0.00353251 -0.00895454 -2.0786 -0.0737744 -0.474524 3.99777 0.134757 2.03217e-16 0.0 3.88251e-19 -1.77359 -6.84758 0.169533 -0.00326658 6.83969 -0.0864338 0.504716 0.00295186 -0.0573573
2.56523 82.222 -91.3028 -5.6589 -3.1659 -1.7935 0.620199 3.53853 0.111739 -0.22319 -2.06034 0.0523498 -0.646759 0.07641 -0.825966 0.130073 -0.211484 -1.45693 -0.0 0.0 0.0 -0.0 0.0 0.0 1.17089e-13 1.27066e-14 5.62518e-14 21.7644 2.381 1.50628 -3.56901 -1.51042 5.68974 0.00187435 1.02148 0.143489 -1.33242e-09 1.25824e-09 -5.56442e-11 -2.30222e-09 2.17559e-09 -8.97602e-11 -1.33241e-09 1.25824e-09 -5.56537e-11 7.73091 5.47488 0.417314 -1.33242e-09 1.25824e-09 -5.56409e-11 2.90554 0.965183 0.102902 -1.33241e-09 1.25824e-09 -5.56472e-11 10.2786 0.731801 0.0259123 -1.33242e-09 1.25825e-09 -5.5641e-11 2.22167 -0.733487 -0.20892 1.17027e-13 1.27073e-14 5.6086e-14 -21.1455 5.96289 -0.0676255 3.8107 -1.65732 -6.03006 -0.00464354 -1.51188 0.212214 -1.24501e-09 -1.25894e-09 -2.23635e-10 -2.15025e-09 -2.17665e-09 -3.90117e-10 -1.24501e-09 -1.25894e-09 -2.23627e-10 -7.73091 5.47488 -0.417314 -1.24501e-09 -1.25894e-09 -2.23636e-10 -2.90554 0.965183 -0.102902 -1.24501e-09 -1.25894e-09 -2.23638e-10 -10.2786 0.731801 -0.0259123 -1.245e-09 -1.25894e-09 -2.23651e-10 -2.22167 -0.733487 0.20892 -2.03217e-16 0.0 -3.88251e-19 3.23701 -4.85072 1.91659 0.0153664 7.05774 0.0749475 -0.588122 -0.616598 -1.11501 2.03217e-16 0.0 3.88251e-19 0.627641 -14.3015 0.760337 0.0435204 22.5272 -0.299217 0.45901 -0.0252603 -0.48273
2.54198 82.1831 -90.4011 -5.8011 -3.128 -1.7223 3.04493 7.28642 0.256537 0.060212 -4.24826 0.188215 -1.33137 0.16181 -1.69663 0.2584 -0.434734 -2.99155 -0.0 0.0 0.0 -0.0 0.0 0.0 2.5281e-13 2.69032e-14 1.22771e-13 44.6471 4.85404 3.08012 -7.0027 -3.04778 11.6941 -0.00192277 2.14144 0.300976 -2.84401e-09 2.72797e-09 -1.20594e-10 -4.91401e-09 4.71687e-09 -1.94793e-10 -2.84401e-09 2.72797e-09 -1.20604e-10 7.73091 5.47488 0.417314 -2.84402e-09 2.72797e-09 -1.20591e-10 2.90554 0.965183 0.102902 -2.84401e-09 2.72797e-09 -1.20597e-10 10.2786 0.731801 0.0259123 -2.84402e-09 2.72798e-09 -1.20591e-10 2.22167 -0.733487 -0.20892 2.52787e-13 2.69043e-14 1.22644e-13 -43.4737 12.2717 -0.151126 7.46959 -3.35306 -12.4327 0.00264798 -3.11323 0.437488 -2.6641e-09 -2.70758e-09 -4.70675e-10 -4.60127e-09 -4.68134e-09 -8.21163e-10 -2.66411e-09 -2.70758e-09 -4.70672e-10 -7.73091 5.47488 -0.417314 -2.6641e-09 -2.70757e-09 -4.70677e-10 -2.90554 0.965183 -0.102902 -2.6641e-09 -2.70757e-09 -4.7068e-10 -10.2786 0.731801 -0.0259123 -2.6641e-09 -2.70757e-09 -4.70694e-10 -2.22167 -0.733487 0.20892 -2.03217e-16 0.0 -3.88251e-19 7.73346 -7.97778 3.96432 -0.0122153 16.741 0.241208 -0.927837 -5.46791 -2.45134 2.03217e-16 0.0 3.88251e-19 3.3411 -22.1567 1.44289 0.258061 39.2241 -0.618979 0.405237 -0.03949 -0.983654
2.5373 82.0746 -89.5156 -5.8679 -3.0713 -1.6614 5.2016 10.6208 0.434692 0.297505 -6.18485 0.321269 -1.93367 0.22904 -2.47792 0.357985 -0.632813 -4.37103 -0.0 0.0 0.0 -0.0 0.0 0.0 3.53357e-13 3.8265e-14 1.6806e-13 64.9155 7.12317 4.55013 -9.81968 -4.35284 17.1141 -0.0097444 3.06436 0.431015 -3.97327e-09 3.77615e-09 -1.71341e-10 -6.86523e-09 6.52922e-09 -2.76893e-10 -3.97327e-09 3.77615e-09 -1.7135e-10 7.73091 5.47488 0.417314 -3.97327e-09 3.77616e-09 -1.71337e-10 2.90554 0.965183 0.102902 -3.97326e-09 3.77615e-09 -1.71343e-10 10.2786 0.731801 0.0259123 -3.97327e-09 3.77616e-09 -1.71338e-10 2.22167 -0.733487 -0.20892 3.53363e-13 3.82664e-14 1.6796e-13 -63.3925 17.8886 -0.212029 10.4018 -4.75209 -18.1471 0.0197572 -4.5354 0.638421 -3.71108e-09 -3.77534e-09 -6.75321e-10 -6.40944e-09 -6.5274e-09 -1.17797e-09 -3.71109e-09 -3.77534e-09 -6.75322e-10 -7.73091 5.47488 -0.417314 -3.71108e-09 -3.77534e-09 -6.75324e-10 -2.90554 0.965183 -0.102902 -3.71108e-09 -3.77534e-09 -6.75328e-10 -10.2786 0.731801 -0.0259123 -3.71108e-09 -3.77534e-09 -6.75343e-10 -2.22167 -0.733487 0.20892 -2.03217e-16 0.0 -3.88251e-19 11.9381 -10.6576 5.83727 -0.0891335 25.3299 0.41001 -1.42483 -9.82594 -3.66755 2.03217e-16 0.0 3.88251e-19 5.95444 -29.1956 2.14646 0.715457 53.8978 -1.11595 0.36634 -0.0816653 -1.33348
2.55592 81.9428 -88.5955 -5.9221 -3.1839 -1.6403 6.71589 12.9215 0.69215 0.400845 -7.49318 0.445706 -2.33549 0.251047 -3.03573 0.408282 -0.769498 -5.36244 -0.0 0.0 0.0 -0.0 0.0 0.0 3.65969e-13 4.25393e-14 1.6027e-13 78.8939 8.89894 5.7345 -11.7008 -5.24099 21.0322 -0.0150031 3.49481 0.49178 -4.14665e-09 3.77046e-09 -1.86578e-10 -7.16504e-09 6.51929e-09 -3.01664e-10 -4.14665e-09 3.77046e-09 -1.86587e-10 7.73091 5.47488 0.417314 -4.14666e-09 3.77046e-09 -1.86575e-10 2.90554 0.965183 0.102902 -4.14665e-09 3.77046e-09 -1.8658e-10 10.2786 0.731801 0.0259123 -4.14666e-09 3.77046e-09 -1.86575e-10 2.22167 -0.733487 -0.20892 3.6598e-13 4.25409e-14 1.60171e-13 -77.33 21.7759 -0.204723 12.2453 -5.62219 -22.0857 0.0373793 -5.50988 0.776783 -3.82778e-09 -3.89095e-09 -7.73982e-10 -6.61049e-09 -6.7269e-09 -1.34916e-09 -3.82778e-09 -3.89095e-09 -7.73985e-10 -7.73091 5.47488 -0.417314 -3.82777e-09 -3.89095e-09 -7.73985e-10 -2.90554 0.965183 -0.102902 -3.82777e-09 -3.89095e-09 -7.7399e-10 -10.2786 0.731801 -0.0259123 -3.82777e-09 -3.89095e-09 -7.74004e-10 -2.22167 -0.733487 0.20892 -2.03217e-16 0.0 -3.88251e-19 14.9763 -12.2625 7.19707 -0.176942 31.1832 0.546689 -1.88444 -12.971 -4.52347 2.03217e-16 0.0 3.88251e-19 7.93435 -34.2057 2.72762 1.3357 63.5168 -1.73312 0.365237 -0.193721 -1.30554
2.53205 81.8763 -87.6385 -6.0553 -3.6592 -1.5934 7.35563 13.7764 1.07622 0.306354 -7.9151 0.562297 -2.46232 0.21327 -3.2839 0.398088 -0.825293 -5.8158 -0.0 0.0 0.0 -0.0 0.0 0.0 2.30732e-13 3.33972e-14 5.70174e-14 84.1727 9.99414 6.50694 -12.5294 -5.65809 22.8213 -0.0121026 3.2046 0.450821 -2.71727e-09 1.91704e-09 -1.24435e-10 -4.69587e-09 3.31432e-09 -1.99233e-10 -2.71728e-09 1.91704e-09 -1.24444e-10 7.73091 5.47488 0.417314 -2.71728e-09 1.91704e-09 -1.24432e-10 2.90554 0.965183 0.102902 -2.71727e-09 1.91704e-09 -1.24437e-10 10.2786 0.731801 0.0259123 -2.71728e-09 1.91704e-09 -1.24431e-10 2.22167 -0.733487 -0.20892 2.30712e-13 3.33986e-14 5.68757e-14 -82.912 23.2477 -0.104372 12.8678 -5.89576 -23.5012 0.0450956 -5.86103 0.826818 -2.3691e-09 -2.39545e-09 -7.50855e-10 -4.08977e-09 -4.14008e-09 -1.30588e-09 -2.36911e-09 -2.39545e-09 -7.50856e-10 -7.73091 5.47488 -0.417314 -2.3691e-09 -2.39545e-09 -7.50857e-10 -2.90554 0.965183 -0.102902 -2.3691e-09 -2.39545e-09 -7.50862e-10 -10.2786 0.731801 -0.0259123 -2.3691e-09 -2.39545e-09 -7.50874e-10 -2.22167 -0.733487 0.20892 -2.03217e-16 0.0 -3.88251e-19 16.2016 -12.3978 7.8038 -0.217908 33.2321 0.60584 -2.09329 -14.4521 -4.82124 2.03217e-16 0.0 3.88251e-19 8.85446 -36.4136 3.07548 1.59977 66.1266 -1.98238 0.428952 -0.434668 -0.682995
2.4876 81.9143 -86.726 -6.2817 -4.0116 -1.4415 7.3834 13.5981 1.5464 0.0670694 -7.70421 0.672464 -2.39286 0.132654 -3.31074 0.347162 -0.82345 -5.88452 -0.0 0.0 0.0 -0.0 0.0 0.0 -8.93328e-15 1.48381e-14 -1.13416e-13 83.2672 10.6072 6.97859 -12.6699 -5.77539 23.0823 -0.00544215 2.40109 0.337574 -1.55661e-10 -1.23846e-09 -8.33863e-12 -2.70616e-10 -2.14214e-09 -8.18005e-12 -1.55661e-10 -1.23846e-09 -8.34757e-12 7.73091 5.47488 0.417314 -1.55663e-10 -1.23845e-09 -8.33643e-12 2.90554 0.965183 0.102902 -1.5566e-10 -1.23845e-09 -8.33952e-12 10.2786 0.731801 0.0259123 -1.55667e-10 -1.23845e-09 -8.33345e-12 2.22167 -0.733487 -0.20892 -9.01075e-15 1.48393e-14 -1.1363e-13 -82.5239 22.9936 0.0627218 12.6812 -5.78207 -23.1069 0.0433736 -5.76684 0.813414 2.0183e-10 2.37601e-10 -6.39472e-10 3.52607e-10 4.14055e-10 -1.10725e-09 2.01827e-10 2.37606e-10 -6.39468e-10 -7.73091 5.47488 -0.417314 2.01834e-10 2.37605e-10 -6.39472e-10 -2.90554 0.965183 -0.102902 2.01831e-10 2.37605e-10 -6.39475e-10 -10.2786 0.731801 -0.0259123 2.01832e-10 2.37605e-10 -6.39485e-10 -2.22167 -0.733487 0.20892 -2.03217e-16 0.0 -3.88251e-19 16.0899 -11.4913 7.86228 -0.208444 32.5625 0.598339 -2.07267 -14.7488 -4.7031 2.03217e-16 0.0 3.88251e-19 8.95225 -36.6214 3.20858 1.37285 63.7293 -1.74024 0.548097 -0.766166 0.361207
2.4605 82.0 -85.8211 -6.3978 -4.2236 -1.3109 7.16367 13.0036 2.01732 -0.229653 -7.25126 0.771107 -2.23912 0.0294704 -3.2439 0.282485 -0.792202 -5.79077 -0.0 0.0 0.0 -0.0 0.0 0.0 -2.50788e-13 -1.89685e-15 -2.76875e-13 79.8964 11.0299 7.31946 -12.5437 -5.77917 22.7317 -0.00126175 1.44222 0.202682 2.43556e-09 -4.3191e-09 8.50729e-11 4.20586e-09 -7.46911e-09 1.4322e-10 2.43556e-09 -4.3191e-09 8.5064e-11 7.73091 5.47488 0.417314 2.43556e-09 -4.3191e-09 8.50742e-11 2.90554 0.965183 0.102902 2.43556e-09 -4.3191e-09 8.50727e-11 10.2786 0.731801 0.0259123 2.43555e-09 -4.3191e-09 8.5079e-11 2.22167 -0.733487 -0.20892 -2.50928e-13 -1.89599e-15 -2.77166e-13 -79.7405 22.0398 0.270124 12.168 -5.5123 -21.9953 0.0379532 -5.48926 0.773914 2.78093e-09 2.88073e-09 -4.50239e-10 4.80875e-09 4.9853e-09 -7.73866e-10 2.78093e-09 2.88074e-09 -4.5023e-10 -7.73091 5.47488 -0.417314 2.78093e-09 2.88074e-09 -4.50237e-10 -2.90554 0.965183 -0.102902 2.78093e-09 2.88074e-09 -4.50239e-10 -10.2786 0.731801 -0.0259123 2.78093e-09 2.88074e-09 -4.50246e-10 -2.22167 -0.733487 0.20892 -2.03217e-16 0.0 -3.88251e-19 15.4219 -10.1579 7.68436 -0.179385 30.766 0.56197 -1.95602 -14.5419 -4.42079 2.03217e-16 0.0 3.88251e-19 8.64717 -35.9826 3.13884 1.04133 59.2292 -1.38854 0.684695 -1.08394 1.46903
